<mxfile host="app.diagrams.net" agent="Mozilla/5.0 (Windows NT 10.0; Win64; x64) AppleWebKit/537.36 (KHTML, like Gecko) Chrome/137.0.0.0 Safari/537.36" version="27.0.6" pages="2">
  <diagram id="FKNb8xwo-72mKZCJLR51" name="Página-2">
    <mxGraphModel grid="1" page="1" gridSize="10" guides="1" tooltips="1" connect="1" arrows="1" fold="1" pageScale="1" pageWidth="827" pageHeight="1169" math="0" shadow="0">
      <root>
        <mxCell id="0" />
        <mxCell id="1" parent="0" />
        <mxCell id="KqXRwLGrOef9W_q5fu8h-38" value="Pagamento" style="swimlane;fontStyle=1;align=center;verticalAlign=top;childLayout=stackLayout;horizontal=1;startSize=26;horizontalStack=0;resizeParent=1;resizeParentMax=0;resizeLast=0;collapsible=1;marginBottom=0;whiteSpace=wrap;html=1;" vertex="1" parent="1">
          <mxGeometry x="-518" y="60" width="208" height="298" as="geometry" />
        </mxCell>
        <mxCell id="KqXRwLGrOef9W_q5fu8h-42" value="-&amp;nbsp; dataDePagamente: LocalDateTime" style="text;strokeColor=none;fillColor=none;align=left;verticalAlign=top;spacingLeft=4;spacingRight=4;overflow=hidden;rotatable=0;points=[[0,0.5],[1,0.5]];portConstraint=eastwest;whiteSpace=wrap;html=1;" vertex="1" parent="KqXRwLGrOef9W_q5fu8h-38">
          <mxGeometry y="26" width="208" height="24" as="geometry" />
        </mxCell>
        <mxCell id="e14EU0JAHPm6NRN32HHI-129" value="- Id:String" style="text;strokeColor=none;fillColor=none;align=left;verticalAlign=top;spacingLeft=4;spacingRight=4;overflow=hidden;rotatable=0;points=[[0,0.5],[1,0.5]];portConstraint=eastwest;whiteSpace=wrap;html=1;" vertex="1" parent="KqXRwLGrOef9W_q5fu8h-38">
          <mxGeometry y="50" width="208" height="20" as="geometry" />
        </mxCell>
        <mxCell id="uuNpxoRCURYeqyougo02-9" value="- pedido: Pedido" style="text;strokeColor=none;fillColor=none;align=left;verticalAlign=top;spacingLeft=4;spacingRight=4;overflow=hidden;rotatable=0;points=[[0,0.5],[1,0.5]];portConstraint=eastwest;whiteSpace=wrap;html=1;" vertex="1" parent="KqXRwLGrOef9W_q5fu8h-38">
          <mxGeometry y="70" width="208" height="20" as="geometry" />
        </mxCell>
        <mxCell id="e14EU0JAHPm6NRN32HHI-139" value="/ userId: string" style="text;strokeColor=none;fillColor=none;align=left;verticalAlign=top;spacingLeft=4;spacingRight=4;overflow=hidden;rotatable=0;points=[[0,0.5],[1,0.5]];portConstraint=eastwest;whiteSpace=wrap;html=1;" vertex="1" parent="KqXRwLGrOef9W_q5fu8h-38">
          <mxGeometry y="90" width="208" height="24" as="geometry" />
        </mxCell>
        <mxCell id="e14EU0JAHPm6NRN32HHI-133" value="-metodoDePagamento: enum" style="text;strokeColor=none;fillColor=none;align=left;verticalAlign=top;spacingLeft=4;spacingRight=4;overflow=hidden;rotatable=0;points=[[0,0.5],[1,0.5]];portConstraint=eastwest;whiteSpace=wrap;html=1;" vertex="1" parent="KqXRwLGrOef9W_q5fu8h-38">
          <mxGeometry y="114" width="208" height="20" as="geometry" />
        </mxCell>
        <mxCell id="e14EU0JAHPm6NRN32HHI-135" value="- status: enum" style="text;strokeColor=none;fillColor=none;align=left;verticalAlign=top;spacingLeft=4;spacingRight=4;overflow=hidden;rotatable=0;points=[[0,0.5],[1,0.5]];portConstraint=eastwest;whiteSpace=wrap;html=1;" vertex="1" parent="KqXRwLGrOef9W_q5fu8h-38">
          <mxGeometry y="134" width="208" height="26" as="geometry" />
        </mxCell>
        <mxCell id="KqXRwLGrOef9W_q5fu8h-40" value="" style="line;strokeWidth=1;fillColor=none;align=left;verticalAlign=middle;spacingTop=-1;spacingLeft=3;spacingRight=3;rotatable=0;labelPosition=right;points=[];portConstraint=eastwest;strokeColor=inherit;" vertex="1" parent="KqXRwLGrOef9W_q5fu8h-38">
          <mxGeometry y="160" width="208" height="8" as="geometry" />
        </mxCell>
        <mxCell id="e14EU0JAHPm6NRN32HHI-107" value="+ Atualizar(type):void" style="text;strokeColor=none;fillColor=none;align=left;verticalAlign=top;spacingLeft=4;spacingRight=4;overflow=hidden;rotatable=0;points=[[0,0.5],[1,0.5]];portConstraint=eastwest;whiteSpace=wrap;html=1;" vertex="1" parent="KqXRwLGrOef9W_q5fu8h-38">
          <mxGeometry y="168" width="208" height="26" as="geometry" />
        </mxCell>
        <mxCell id="e14EU0JAHPm6NRN32HHI-136" value="- getbyId(type):void" style="text;strokeColor=none;fillColor=none;align=left;verticalAlign=top;spacingLeft=4;spacingRight=4;overflow=hidden;rotatable=0;points=[[0,0.5],[1,0.5]];portConstraint=eastwest;whiteSpace=wrap;html=1;" vertex="1" parent="KqXRwLGrOef9W_q5fu8h-38">
          <mxGeometry y="194" width="208" height="26" as="geometry" />
        </mxCell>
        <mxCell id="uuNpxoRCURYeqyougo02-10" value="- getbyId(type):void" style="text;strokeColor=none;fillColor=none;align=left;verticalAlign=top;spacingLeft=4;spacingRight=4;overflow=hidden;rotatable=0;points=[[0,0.5],[1,0.5]];portConstraint=eastwest;whiteSpace=wrap;html=1;" vertex="1" parent="KqXRwLGrOef9W_q5fu8h-38">
          <mxGeometry y="220" width="208" height="26" as="geometry" />
        </mxCell>
        <mxCell id="e14EU0JAHPm6NRN32HHI-108" value="- Deletar(type):void" style="text;strokeColor=none;fillColor=none;align=left;verticalAlign=top;spacingLeft=4;spacingRight=4;overflow=hidden;rotatable=0;points=[[0,0.5],[1,0.5]];portConstraint=eastwest;whiteSpace=wrap;html=1;" vertex="1" parent="KqXRwLGrOef9W_q5fu8h-38">
          <mxGeometry y="246" width="208" height="26" as="geometry" />
        </mxCell>
        <mxCell id="e14EU0JAHPm6NRN32HHI-106" value="- Criar(type):void" style="text;strokeColor=none;fillColor=none;align=left;verticalAlign=top;spacingLeft=4;spacingRight=4;overflow=hidden;rotatable=0;points=[[0,0.5],[1,0.5]];portConstraint=eastwest;whiteSpace=wrap;html=1;" vertex="1" parent="KqXRwLGrOef9W_q5fu8h-38">
          <mxGeometry y="272" width="208" height="26" as="geometry" />
        </mxCell>
        <mxCell id="8rAwrh_lsvGqk3LuG226-70" style="edgeStyle=orthogonalEdgeStyle;rounded=0;orthogonalLoop=1;jettySize=auto;html=1;exitX=0.5;exitY=0;exitDx=0;exitDy=0;dashed=1;endArrow=none;startFill=0;" edge="1" parent="1" source="KqXRwLGrOef9W_q5fu8h-68">
          <mxGeometry relative="1" as="geometry">
            <mxPoint x="330.3529411764707" y="-130" as="targetPoint" />
          </mxGeometry>
        </mxCell>
        <mxCell id="KqXRwLGrOef9W_q5fu8h-68" value="Curso" style="swimlane;fontStyle=1;align=center;verticalAlign=top;childLayout=stackLayout;horizontal=1;startSize=26;horizontalStack=0;resizeParent=1;resizeParentMax=0;resizeLast=0;collapsible=1;marginBottom=0;whiteSpace=wrap;html=1;" vertex="1" parent="1">
          <mxGeometry x="240" y="60" width="180" height="318" as="geometry" />
        </mxCell>
        <mxCell id="e14EU0JAHPm6NRN32HHI-27" value="- duração&lt;span style=&quot;color: rgba(0, 0, 0, 0); font-family: monospace; font-size: 0px; text-wrap-mode: nowrap;&quot;&gt;%3CmxdddGraphModel%3E%3Croot%3E%3CmxCell%20id%3D%220%22%2F%3E%3CmxCell%20id%3D%221%22%20parent%3D%220%22%2F%3E%3CmxCell%20id%3D%222%22%20value%3D%22-%20nomeDoCurso%3A%20int%22%20style%3D%22text%3BstrokeColor%3Dnone%3BfillColor%3Dnone%3Balign%3Dleft%3BverticalAlign%3Dtop%3BspacingLeft%3D4%3BspacingRight%3D4%3Boverflow%3Dhidden%3Brotatable%3D0%3Bpoints%3D%5B%5B0%2C0.5%5D%2C%5B1%2C0.5%5D%5D%3BportConstraint%3Deastwest%3BwhiteSpace%3Dwrap%3Bhtml%3D1%3B%22%20vertex%3D%221%22%20parent%3D%221%22%3E%3CmxGeometry%20x%3D%22400%22%20y%3D%22196%22%20width%3D%22160%22%20height%3D%2226%22%20as%3D%22geometry%22%2F%3E%3C%2FmxCell%3E%3C%2Froot%3E%3C%2FmxGraphModel%3E&lt;/span&gt;&lt;span style=&quot;color: rgba(0, 0, 0, 0); font-family: monospace; font-size: 0px; text-wrap-mode: nowrap;&quot;&gt;%3CmxGraphModel%3E%3Croot%3E%3CmxCell%20id%3D%220%22%2F%3E%3CmxCell%20id%3D%221%22%20parent%3D%220%22%2F%3E%3CmxCell%20id%3D%222%22%20value%3D%22-%20nomeDoCurso%3A%20int%22%20style%3D%22text%3BstrokeColor%3Dnone%3BfillColor%3Dnone%3Balign%3Dleft%3BverticalAlign%3Dtop%3BspacingLeft%3D4%3BspacingRight%3D4%3Boverflow%3Dhidden%3Brotatable%3D0%3Bpoints%3D%5B%5B0%2C0.5%5D%2C%5B1%2C0.5%5D%5D%3BportConstraint%3Deastwest%3BwhiteSpace%3Dwrap%3Bhtml%3D1%3B%22%20vertex%3D%221%22%20parent%3D%221%22%3E%3CmxGeometry%20x%3D%22400%22%20y%3D%22196%22%20width%3D%22160%22%20height%3D%2226%22%20as%3D%22geometry%22%2F%3E%3C%2FmxCell%3E%3C%2Froot%3E%3C%2Fm&lt;/span&gt;: DateTime&lt;span style=&quot;color: rgba(0, 0, 0, 0); font-family: monospace; font-size: 0px; text-wrap-mode: nowrap;&quot;&gt;%3CmxGraphModel%3E%3Croot%3E%3CmxCell%20id%3D%220%22%2F%3E%3CmxCell%20id%3D%221%22%20parent%3D%220%22%2F%3E%3CmxCell%20id%3D%222%22%20value%3D%22-%20nomeDoCurso%3A%20int%22%20style%3D%22text%3BstrokeColor%3Dnone%3BfillColor%3Dnone%3Balign%3Dleft%3BverticalAlign%3Dtop%3BspacingLeft%3D4%3BspacingRight%3D4%3Boverflow%3Dhidden%3Brotatable%3D0%3Bpoints%3D%5B%5B0%2C0.5%5D%2C%5B1%2C0.5%5D%5D%3BportConstraint%3Deastwest%3BwhiteSpace%3Dwrap%3Bhtml%3D1%3B%22%20vertex%3D%221%22%20parent%3D%221%22%3E%3CmxGeometry%20x%3D%22400%22%20y%3D%22196%22%20width%3D%22160%22%20height%3D%2226%22%20as%3D%22geometry%22%2F%3E%3C%2FmxCell%3E%3C%2Froot%3E%3C%2FmxGraphModel&lt;/span&gt;" style="text;strokeColor=none;fillColor=none;align=left;verticalAlign=top;spacingLeft=4;spacingRight=4;overflow=hidden;rotatable=0;points=[[0,0.5],[1,0.5]];portConstraint=eastwest;whiteSpace=wrap;html=1;" vertex="1" parent="KqXRwLGrOef9W_q5fu8h-68">
          <mxGeometry y="26" width="180" height="26" as="geometry" />
        </mxCell>
        <mxCell id="e14EU0JAHPm6NRN32HHI-116" value="- Id:String" style="text;strokeColor=none;fillColor=none;align=left;verticalAlign=top;spacingLeft=4;spacingRight=4;overflow=hidden;rotatable=0;points=[[0,0.5],[1,0.5]];portConstraint=eastwest;whiteSpace=wrap;html=1;" vertex="1" parent="KqXRwLGrOef9W_q5fu8h-68">
          <mxGeometry y="52" width="180" height="20" as="geometry" />
        </mxCell>
        <mxCell id="uuNpxoRCURYeqyougo02-5" value="-descricaoDoCurso&lt;span style=&quot;color: rgba(0, 0, 0, 0); font-family: monospace; font-size: 0px; text-wrap-mode: nowrap;&quot;&gt;%3CmxGraphModel%3E%3Croot%3E%3CmxCell%20id%3D%220%22%2F%3E%3CmxCell%20id%3D%221%22%20parent%3D%220%22%2F%3E%3CmxCell%20id%3D%222%22%20value%3D%22-%20nomeDoCurso%3A%20int%22%20style%3D%22text%3BstrokeColor%3Dnone%3BfillColor%3Dnone%3Balign%3Dleft%3BverticalAlign%3Dtop%3BspacingLeft%3D4%3BspacingRight%3D4%3Boverflow%3Dhidden%3Brotatable%3D0%3Bpoints%3D%5B%5B0%2C0.5%5D%2C%5B1%2C0.5%5D%5D%3BportConstraint%3Deastwest%3BwhiteSpace%3Dwrap%3Bhtml%3D1%3B%22%20vertex%3D%221%22%20parent%3D%221%22%3E%3CmxGeometry%20x%3D%22400%22%20y%3D%22196%22%20width%3D%22160%22%20height%3D%2226%22%20as%3D%22geometry%22%2F%3E%3C%2FmxCell%3E%3C%2Froot%3E%3C%2FmxGraphModel%3E&lt;/span&gt;&lt;span style=&quot;color: rgba(0, 0, 0, 0); font-family: monospace; font-size: 0px; text-wrap-mode: nowrap;&quot;&gt;%3CmxGraphModel%3E%3Croot%3E%3CmxCell%20id%3D%220%22%2F%3E%3CmxCell%20id%3D%221%22%20parent%3D%220%22%2F%3E%3CmxCell%20id%3D%222%22%20value%3D%22-%20nomeDoCurso%3A%20int%22%20style%3D%22text%3BstrokeColor%3Dnone%3BfillColor%3Dnone%3Balign%3Dleft%3BverticalAlign%3Dtop%3BspacingLeft%3D4%3BspacingRight%3D4%3Boverflow%3Dhidden%3Brotatable%3D0%3Bpoints%3D%5B%5B0%2C0.5%5D%2C%5B1%2C0.5%5D%5D%3BportConstraint%3Deastwest%3BwhiteSpace%3Dwrap%3Bhtml%3D1%3B%22%20vertex%3D%221%22%20parent%3D%221%22%3E%3CmxGeometry%20x%3D%22400%22%20y%3D%22196%22%20width%3D%22160%22%20height%3D%2226%22%20as%3D%22geometry%22%2F%3E%3C%2FmxCell%3E%3C%2Froot%3E%3C%2Fmx&lt;/span&gt;: string&lt;span style=&quot;color: rgba(0, 0, 0, 0); font-family: monospace; font-size: 0px; text-wrap-mode: nowrap;&quot;&gt;%3CmxGraphModel%3E%3Croot%3E%3CmxCell%20id%3D%220%22%2F%3E%3CmxCell%20id%3D%221%22%20parent%3D%220%22%2F%3E%3CmxCell%20id%3D%222%22%20value%3D%22-%20nomeDoCurso%3A%20int%22%20style%3D%22text%3BstrokeColor%3Dnone%3BfillColor%3Dnone%3Balign%3Dleft%3BverticalAlign%3Dtop%3BspacingLeft%3D4%3BspacingRight%3D4%3Boverflow%3Dhidden%3Brotatable%3D0%3Bpoints%3D%5B%5B0%2C0.5%5D%2C%5B1%2C0.5%5D%5D%3BportConstraint%3Deastwest%3BwhiteSpace%3Dwrap%3Bhtml%3D1%3B%22%20vertex%3D%221%22%20parent%3D%221%22%3E%3CmxGeometry%20x%3D%22400%22%20y%3D%22196%22%20width%3D%22160%22%20height%3D%2226%22%20as%3D%22geometry%22%2F%3E%3C%2FmxCell%3E%3C%2Froot%3E%3C%2FmxGraphModel%3E&lt;/span&gt;" style="text;strokeColor=none;fillColor=none;align=left;verticalAlign=top;spacingLeft=4;spacingRight=4;overflow=hidden;rotatable=0;points=[[0,0.5],[1,0.5]];portConstraint=eastwest;whiteSpace=wrap;html=1;" vertex="1" parent="KqXRwLGrOef9W_q5fu8h-68">
          <mxGeometry y="72" width="180" height="26" as="geometry" />
        </mxCell>
        <mxCell id="e14EU0JAHPm6NRN32HHI-149" value="- preco: double&lt;span style=&quot;color: rgba(0, 0, 0, 0); font-family: monospace; font-size: 0px; text-wrap-mode: nowrap;&quot;&gt;%3CmxGraphModel%3E%3Croot%3E%3CmxCell%20id%3D%220%22%2F%3E%3CmxCell%20id%3D%221%22%20parent%3D%220%22%2F%3E%3CmxCell%20id%3D%222%22%20value%3D%22-%20nomeDoCurso%3A%20int%22%20style%3D%22text%3BstrokeColor%3Dnone%3BfillColor%3Dnone%3Balign%3Dleft%3BverticalAlign%3Dtop%3BspacingLeft%3D4%3BspacingRight%3D4%3Boverflow%3Dhidden%3Brotatable%3D0%3Bpoints%3D%5B%5B0%2C0.5%5D%2C%5B1%2C0.5%5D%5D%3BportConstraint%3Deastwest%3BwhiteSpace%3Dwrap%3Bhtml%3D1%3B%22%20vertex%3D%221%22%20parent%3D%221%22%3E%3CmxGeometry%20x%3D%22400%22%20y%3D%22196%22%20width%3D%22160%22%20height%3D%2226%22%20as%3D%22geometry%22%2F%3E%3C%2FmxCell%3E%3C%2Froot%3E%3C%2FmxGraphModel&lt;/span&gt;" style="text;strokeColor=none;fillColor=none;align=left;verticalAlign=top;spacingLeft=4;spacingRight=4;overflow=hidden;rotatable=0;points=[[0,0.5],[1,0.5]];portConstraint=eastwest;whiteSpace=wrap;html=1;" vertex="1" parent="KqXRwLGrOef9W_q5fu8h-68">
          <mxGeometry y="98" width="180" height="26" as="geometry" />
        </mxCell>
        <mxCell id="e14EU0JAHPm6NRN32HHI-147" value="- nomeDoCurso: string" style="text;strokeColor=none;fillColor=none;align=left;verticalAlign=top;spacingLeft=4;spacingRight=4;overflow=hidden;rotatable=0;points=[[0,0.5],[1,0.5]];portConstraint=eastwest;whiteSpace=wrap;html=1;" vertex="1" parent="KqXRwLGrOef9W_q5fu8h-68">
          <mxGeometry y="124" width="180" height="26" as="geometry" />
        </mxCell>
        <mxCell id="KqXRwLGrOef9W_q5fu8h-70" value="" style="line;strokeWidth=1;fillColor=none;align=left;verticalAlign=middle;spacingTop=-1;spacingLeft=3;spacingRight=3;rotatable=0;labelPosition=right;points=[];portConstraint=eastwest;strokeColor=inherit;" vertex="1" parent="KqXRwLGrOef9W_q5fu8h-68">
          <mxGeometry y="150" width="180" height="8" as="geometry" />
        </mxCell>
        <mxCell id="e14EU0JAHPm6NRN32HHI-26" value="-addCurso(type): String" style="text;strokeColor=none;fillColor=none;align=left;verticalAlign=top;spacingLeft=4;spacingRight=4;overflow=hidden;rotatable=0;points=[[0,0.5],[1,0.5]];portConstraint=eastwest;whiteSpace=wrap;html=1;" vertex="1" parent="KqXRwLGrOef9W_q5fu8h-68">
          <mxGeometry y="158" width="180" height="30" as="geometry" />
        </mxCell>
        <mxCell id="e14EU0JAHPm6NRN32HHI-61" value="- numeroDeInscrito: Integer." style="text;strokeColor=none;fillColor=none;align=left;verticalAlign=top;spacingLeft=4;spacingRight=4;overflow=hidden;rotatable=0;points=[[0,0.5],[1,0.5]];portConstraint=eastwest;whiteSpace=wrap;html=1;" vertex="1" parent="KqXRwLGrOef9W_q5fu8h-68">
          <mxGeometry y="188" width="180" height="26" as="geometry" />
        </mxCell>
        <mxCell id="e14EU0JAHPm6NRN32HHI-143" value="- getbyId(type):void" style="text;strokeColor=none;fillColor=none;align=left;verticalAlign=top;spacingLeft=4;spacingRight=4;overflow=hidden;rotatable=0;points=[[0,0.5],[1,0.5]];portConstraint=eastwest;whiteSpace=wrap;html=1;" vertex="1" parent="KqXRwLGrOef9W_q5fu8h-68">
          <mxGeometry y="214" width="180" height="26" as="geometry" />
        </mxCell>
        <mxCell id="e14EU0JAHPm6NRN32HHI-100" value="- Criar(type):void" style="text;strokeColor=none;fillColor=none;align=left;verticalAlign=top;spacingLeft=4;spacingRight=4;overflow=hidden;rotatable=0;points=[[0,0.5],[1,0.5]];portConstraint=eastwest;whiteSpace=wrap;html=1;" vertex="1" parent="KqXRwLGrOef9W_q5fu8h-68">
          <mxGeometry y="240" width="180" height="26" as="geometry" />
        </mxCell>
        <mxCell id="e14EU0JAHPm6NRN32HHI-99" value="- Deletar(type):void" style="text;strokeColor=none;fillColor=none;align=left;verticalAlign=top;spacingLeft=4;spacingRight=4;overflow=hidden;rotatable=0;points=[[0,0.5],[1,0.5]];portConstraint=eastwest;whiteSpace=wrap;html=1;" vertex="1" parent="KqXRwLGrOef9W_q5fu8h-68">
          <mxGeometry y="266" width="180" height="26" as="geometry" />
        </mxCell>
        <mxCell id="e14EU0JAHPm6NRN32HHI-98" value="- Atualizar(type):void" style="text;strokeColor=none;fillColor=none;align=left;verticalAlign=top;spacingLeft=4;spacingRight=4;overflow=hidden;rotatable=0;points=[[0,0.5],[1,0.5]];portConstraint=eastwest;whiteSpace=wrap;html=1;" vertex="1" parent="KqXRwLGrOef9W_q5fu8h-68">
          <mxGeometry y="292" width="180" height="26" as="geometry" />
        </mxCell>
        <mxCell id="KqXRwLGrOef9W_q5fu8h-78" value="Pedido" style="swimlane;fontStyle=1;align=center;verticalAlign=top;childLayout=stackLayout;horizontal=1;startSize=26;horizontalStack=0;resizeParent=1;resizeParentMax=0;resizeLast=0;collapsible=1;marginBottom=0;whiteSpace=wrap;html=1;" vertex="1" parent="1">
          <mxGeometry x="-100" y="60" width="180" height="296" as="geometry" />
        </mxCell>
        <mxCell id="uuNpxoRCURYeqyougo02-2" value="- List&amp;lt;Curso&amp;gt; curso." style="text;strokeColor=none;fillColor=none;align=left;verticalAlign=top;spacingLeft=4;spacingRight=4;overflow=hidden;rotatable=0;points=[[0,0.5],[1,0.5]];portConstraint=eastwest;whiteSpace=wrap;html=1;" vertex="1" parent="KqXRwLGrOef9W_q5fu8h-78">
          <mxGeometry y="26" width="180" height="26" as="geometry" />
        </mxCell>
        <mxCell id="e14EU0JAHPm6NRN32HHI-21" value="- valorTotalDoCurso: double." style="text;strokeColor=none;fillColor=none;align=left;verticalAlign=top;spacingLeft=4;spacingRight=4;overflow=hidden;rotatable=0;points=[[0,0.5],[1,0.5]];portConstraint=eastwest;whiteSpace=wrap;html=1;" vertex="1" parent="KqXRwLGrOef9W_q5fu8h-78">
          <mxGeometry y="52" width="180" height="26" as="geometry" />
        </mxCell>
        <mxCell id="uuNpxoRCURYeqyougo02-6" value="- cupom: String." style="text;strokeColor=none;fillColor=none;align=left;verticalAlign=top;spacingLeft=4;spacingRight=4;overflow=hidden;rotatable=0;points=[[0,0.5],[1,0.5]];portConstraint=eastwest;whiteSpace=wrap;html=1;" vertex="1" parent="KqXRwLGrOef9W_q5fu8h-78">
          <mxGeometry y="78" width="180" height="26" as="geometry" />
        </mxCell>
        <mxCell id="KqXRwLGrOef9W_q5fu8h-80" value="" style="line;strokeWidth=1;fillColor=none;align=left;verticalAlign=middle;spacingTop=-1;spacingLeft=3;spacingRight=3;rotatable=0;labelPosition=right;points=[];portConstraint=eastwest;strokeColor=inherit;" vertex="1" parent="KqXRwLGrOef9W_q5fu8h-78">
          <mxGeometry y="104" width="180" height="8" as="geometry" />
        </mxCell>
        <mxCell id="8rAwrh_lsvGqk3LuG226-1" value="+ atualizar(type):void" style="text;strokeColor=none;fillColor=none;align=left;verticalAlign=top;spacingLeft=4;spacingRight=4;overflow=hidden;rotatable=0;points=[[0,0.5],[1,0.5]];portConstraint=eastwest;whiteSpace=wrap;html=1;" vertex="1" parent="KqXRwLGrOef9W_q5fu8h-78">
          <mxGeometry y="112" width="180" height="26" as="geometry" />
        </mxCell>
        <mxCell id="uuNpxoRCURYeqyougo02-8" value="+ testarCupom(type): boolean" style="text;strokeColor=none;fillColor=none;align=left;verticalAlign=top;spacingLeft=4;spacingRight=4;overflow=hidden;rotatable=0;points=[[0,0.5],[1,0.5]];portConstraint=eastwest;whiteSpace=wrap;html=1;" vertex="1" parent="KqXRwLGrOef9W_q5fu8h-78">
          <mxGeometry y="138" width="180" height="26" as="geometry" />
        </mxCell>
        <mxCell id="uuNpxoRCURYeqyougo02-7" value="+AplicarCupom: void&lt;div&gt;&lt;br&gt;&lt;/div&gt;" style="text;strokeColor=none;fillColor=none;align=left;verticalAlign=top;spacingLeft=4;spacingRight=4;overflow=hidden;rotatable=0;points=[[0,0.5],[1,0.5]];portConstraint=eastwest;whiteSpace=wrap;html=1;" vertex="1" parent="KqXRwLGrOef9W_q5fu8h-78">
          <mxGeometry y="164" width="180" height="26" as="geometry" />
        </mxCell>
        <mxCell id="uuNpxoRCURYeqyougo02-3" value="+StringBuilder sb: String" style="text;strokeColor=none;fillColor=none;align=left;verticalAlign=top;spacingLeft=4;spacingRight=4;overflow=hidden;rotatable=0;points=[[0,0.5],[1,0.5]];portConstraint=eastwest;whiteSpace=wrap;html=1;" vertex="1" parent="KqXRwLGrOef9W_q5fu8h-78">
          <mxGeometry y="190" width="180" height="26" as="geometry" />
        </mxCell>
        <mxCell id="8rAwrh_lsvGqk3LuG226-2" value="- deletar(type):void" style="text;strokeColor=none;fillColor=none;align=left;verticalAlign=top;spacingLeft=4;spacingRight=4;overflow=hidden;rotatable=0;points=[[0,0.5],[1,0.5]];portConstraint=eastwest;whiteSpace=wrap;html=1;" vertex="1" parent="KqXRwLGrOef9W_q5fu8h-78">
          <mxGeometry y="216" width="180" height="26" as="geometry" />
        </mxCell>
        <mxCell id="8rAwrh_lsvGqk3LuG226-3" value="+criar(type):void" style="text;strokeColor=none;fillColor=none;align=left;verticalAlign=top;spacingLeft=4;spacingRight=4;overflow=hidden;rotatable=0;points=[[0,0.5],[1,0.5]];portConstraint=eastwest;whiteSpace=wrap;html=1;" vertex="1" parent="KqXRwLGrOef9W_q5fu8h-78">
          <mxGeometry y="242" width="180" height="24" as="geometry" />
        </mxCell>
        <mxCell id="e14EU0JAHPm6NRN32HHI-18" value="- inscrever-se(type): void" style="text;strokeColor=none;fillColor=none;align=left;verticalAlign=top;spacingLeft=4;spacingRight=4;overflow=hidden;rotatable=0;points=[[0,0.5],[1,0.5]];portConstraint=eastwest;whiteSpace=wrap;html=1;" vertex="1" parent="KqXRwLGrOef9W_q5fu8h-78">
          <mxGeometry y="266" width="180" height="30" as="geometry" />
        </mxCell>
        <mxCell id="8rAwrh_lsvGqk3LuG226-56" style="edgeStyle=orthogonalEdgeStyle;rounded=0;orthogonalLoop=1;jettySize=auto;html=1;exitX=0.5;exitY=0;exitDx=0;exitDy=0;endArrow=block;endFill=0;" edge="1" parent="1" source="e14EU0JAHPm6NRN32HHI-6" target="8rAwrh_lsvGqk3LuG226-33">
          <mxGeometry relative="1" as="geometry">
            <mxPoint x="-324.9411764705883" y="-660" as="targetPoint" />
          </mxGeometry>
        </mxCell>
        <mxCell id="e14EU0JAHPm6NRN32HHI-6" value="Cliente" style="swimlane;fontStyle=1;align=center;verticalAlign=top;childLayout=stackLayout;horizontal=1;startSize=26;horizontalStack=0;resizeParent=1;resizeParentMax=0;resizeLast=0;collapsible=1;marginBottom=0;whiteSpace=wrap;html=1;" vertex="1" parent="1">
          <mxGeometry x="-430" y="-410" width="210" height="34" as="geometry" />
        </mxCell>
        <mxCell id="8rAwrh_lsvGqk3LuG226-17" style="edgeStyle=orthogonalEdgeStyle;rounded=0;orthogonalLoop=1;jettySize=auto;html=1;dashed=1;exitX=0.5;exitY=1;exitDx=0;exitDy=0;entryX=0.5;entryY=0;entryDx=0;entryDy=0;" edge="1" parent="1" source="e14EU0JAHPm6NRN32HHI-6" target="KqXRwLGrOef9W_q5fu8h-38">
          <mxGeometry relative="1" as="geometry">
            <mxPoint x="-450" y="-280" as="sourcePoint" />
            <mxPoint x="-640" y="194" as="targetPoint" />
            <Array as="points">
              <mxPoint x="-325" y="-280" />
              <mxPoint x="-414" y="-280" />
            </Array>
          </mxGeometry>
        </mxCell>
        <mxCell id="8rAwrh_lsvGqk3LuG226-18" style="edgeStyle=orthogonalEdgeStyle;rounded=0;orthogonalLoop=1;jettySize=auto;html=1;dashed=1;entryX=0.5;entryY=0;entryDx=0;entryDy=0;" edge="1" parent="1" target="KqXRwLGrOef9W_q5fu8h-78">
          <mxGeometry relative="1" as="geometry">
            <mxPoint x="-310" y="-380" as="sourcePoint" />
            <mxPoint x="170" y="124" as="targetPoint" />
            <Array as="points">
              <mxPoint x="-310" y="-280" />
              <mxPoint x="-10" y="-280" />
            </Array>
          </mxGeometry>
        </mxCell>
        <mxCell id="8rAwrh_lsvGqk3LuG226-21" value="1" style="edgeLabel;html=1;align=center;verticalAlign=middle;resizable=0;points=[];" connectable="0" vertex="1" parent="8rAwrh_lsvGqk3LuG226-18">
          <mxGeometry x="-0.6913" y="1" relative="1" as="geometry">
            <mxPoint x="-4" y="-89" as="offset" />
          </mxGeometry>
        </mxCell>
        <mxCell id="8rAwrh_lsvGqk3LuG226-27" value="Pessoa" style="swimlane;fontStyle=1;align=center;verticalAlign=top;childLayout=stackLayout;horizontal=1;startSize=26;horizontalStack=0;resizeParent=1;resizeParentMax=0;resizeLast=0;collapsible=1;marginBottom=0;whiteSpace=wrap;html=1;" vertex="1" parent="1">
          <mxGeometry x="-100" y="-810" width="230" height="270" as="geometry" />
        </mxCell>
        <mxCell id="8rAwrh_lsvGqk3LuG226-28" value="- nome: String&lt;span style=&quot;white-space: pre;&quot;&gt;&#x9;&lt;/span&gt;" style="text;strokeColor=none;fillColor=none;align=left;verticalAlign=top;spacingLeft=4;spacingRight=4;overflow=hidden;rotatable=0;points=[[0,0.5],[1,0.5]];portConstraint=eastwest;whiteSpace=wrap;html=1;" vertex="1" parent="8rAwrh_lsvGqk3LuG226-27">
          <mxGeometry y="26" width="230" height="22" as="geometry" />
        </mxCell>
        <mxCell id="8rAwrh_lsvGqk3LuG226-29" value="- dataDeNascimento: Date&lt;span style=&quot;color: rgba(0, 0, 0, 0); font-family: monospace; font-size: 0px; text-wrap-mode: nowrap;&quot;&gt;%3CmxGraphModel%3E%3Croot%3E%3CmxCell%20id%3D%220%22%2F%3E%3CmxCell%20id%3D%221%22%20parent%3D%220%22%2F%3E%3CmxCell%20id%3D%222%22%20value%3D%22-%20cpf%3A%20int%26lt%3Bspan%20style%3D%26quot%3Bcolor%3A%20rgba(0%2C%200%2C%200%2C%200)%3B%20font-family%3A%20monospace%3B%20font-size%3A%200px%3B%20text-wrap-mode%3A%20nowrap%3B%26quot%3B%26gt%3B%253CmxGraphModel%253E%253Croot%253E%253CmxCell%2520id%253D%25220%2522%252F%253E%253CmxCell%2520id%253D%25221%2522%2520parent%253D%25220%2522%252F%253E%253CmxCell%2520id%253D%25222%2522%2520value%253D%2522%252B%2520carteiraDeTrabalho%253A%2520int%2526lt%253Bspan%2520style%253D%2526quot%253Bcolor%253A%2520rgba(0%252C%25200%252C%25200%252C%25200)%253B%2520font-family%253A%2520monospace%253B%2520font-size%253A%25200px%253B%2520text-wrap-mode%253A%2520nowrap%253B%2526quot%253B%2526gt%253B%25253CmxGraphModel%25253E%25253Croot%25253E%25253CmxCell%252520id%25253D%2525220%252522%25252F%25253E%25253CmxCell%252520id%25253D%2525221%252522%252520parent%25253D%2525220%252522%25252F%25253E%25253CmxCell%252520id%25253D%2525222%252522%252520value%25253D%252522-%252520cpf%25253A%252520int%252522%252520style%25253D%252522text%25253BstrokeColor%25253Dnone%25253BfillColor%25253Dnone%25253Balign%25253Dleft%25253BverticalAlign%25253Dtop%25253BspacingLeft%25253D4%25253BspacingRight%25253D4%25253Boverflow%25253Dhidden%25253Brotatable%25253D0%25253Bpoints%25253D%25255B%25255B0%25252C0.5%25255D%25252C%25255B1%25252C0.5%25255D%25255D%25253BportConstraint%25253Deastwest%25253BwhiteSpace%25253Dwrap%25253Bhtml%25253D1%25253B%252522%252520vertex%25253D%2525221%252522%252520parent%25253D%2525221%252522%25253E%25253CmxGeometry%252520x%25253D%25252250%252522%252520y%25253D%252522366%252522%252520width%25253D%252522200%252522%252520height%25253D%25252226%252522%252520as%25253D%252522geometry%252522%25252F%25253E%25253C%25252FmxCell%25253E%25253C%25252Froot%25253E%25253C%25252FmxGraphModel%25253E%2526lt%253B%252Fspan%2526gt%253B%2522%2520style%253D%2522text%253BstrokeColor%253Dnone%253BfillColor%253Dnone%253Balign%253Dleft%253BverticalAlign%253Dtop%253BspacingLeft%253D4%253BspacingRight%253D4%253Boverflow%253Dhidden%253Brotatable%253D0%253Bpoints%253D%255B%255B0%252C0.5%255D%252C%255B1%252C0.5%255D%255D%253BportConstraint%253Deastwest%253BwhiteSpace%253Dwrap%253Bhtml%253D1%253B%2522%2520vertex%253D%25221%2522%2520parent%253D%25221%2522%253E%253CmxGeometry%2520x%253D%2522334%2522%2520y%253D%252286%2522%2520width%253D%2522160%2522%2520height%253D%252222%2522%2520as%253D%2522geometry%2522%252F%253E%253C%252FmxCell%253E%253C%252Froot%253E%253C%252FmxGraphModel%253E%253CmxGraphModel%253E%253Croot%253E%253CmxCell%2520id%253D%25220%2522%252F%253E%253CmxCell%2520id%253D%25221%2522%2520parent%253D%25220%2522%252F%253E%253CmxCell%2520id%253D%25222%2522%2520value%253D%2522-%2520cpf%253A%2520int%2522%2520style%253D%2522text%253BstrokeColor%253Dnone%253BfillColor%253Dnone%253Balign%253Dleft%253BverticalAlign%253Dtop%253BspacingLeft%253D4%253BspacingRight%253D4%253Boverflow%253Dhidden%253Brotatable%253D0%253Bpoints%253D%255B%255B0%252C0.5%255D%252C%255B1%252C0.5%255D%255D%253BportConstraint%253Deastwest%253BwhiteSpace%253Dwrap%253Bhtml%253D1%253B%2522%2520vertex%253D%25221%2522%2520parent%253D%25221%2522%253E%253CmxGeometry%2520x%253D%252250%2522%2520y%253D%2522366%2522%2520width%253D%2522200%2522%2520height%253D%252226%2522%2520as%253D%2522geometry%2522%252F%253E%253C%252FmxCell%253E%253C%252Froot%253E%253C%252FmxGraphModel%253E%26lt%3B%2Fspan%26gt%3B%22%20style%3D%22text%3BstrokeColor%3Dnone%3BfillColor%3Dnone%3Balign%3Dleft%3BverticalAlign%3Dtop%3BspacingLeft%3D4%3BspacingRight%3D4%3Boverflow%3Dhidden%3Brotatable%3D0%3Bpoints%3D%5B%5B0%2C0.5%5D%2C%5B1%2C0.5%5D%5D%3BportConstraint%3Deastwest%3BwhiteSpace%3Dwrap%3Bhtml%3D1%3B%22%20vertex%3D%221%22%20parent%3D%221%22%3E%3CmxGeometry%20x%3D%22110%22%20y%3D%2270%22%20width%3D%22160%22%20height%3D%2222%22%20as%3D%22geometry%22%2F%3E%3C%2FmxCell%3E%3C%2Froot%3E%3C%2FmxGraphModel%3E%3CmxGraphModel%3E%3Croot%3E%3CmxCell%20id%3D%220%22%2F%3E%3CmxCell%20id%3D%221%22%20parent%3D%220%22%2F%3E%3CmxCell%20id%3D%222%22%20value%3D%22%2B%20carteiraDeTrabalho%3A%20int%26lt%3Bspan%20style%3D%26quot%3Bcolor%3A%20rgba(0%2C%200%2C%200%2C%200)%3B%20font-family%3A%20monospace%3B%20font-size%3A%200px%3B%20text-wrap-mode%3A%20nowrap%3B%26quot%3B%26gt%3B%253CmxGraphModel%253E%253Croot%253E%253CmxCell%2520id%253D%25220%2522%252F%253E%253CmxCell%2520id%253D%25221%2522%2520parent%253D%25220%2522%252F%253E%253CmxCell%2520id%253D%25222%2522%2520value%253D%2522-%2520cpf%253A%2520int%2522%2520style%253D%2522text%253BstrokeColor%253Dnone%253BfillColor%253Dnone%253Balign%253Dleft%253BverticalAlign%253Dtop%253BspacingLeft%253D4%253BspacingRight%253D4%253Boverflow%253Dhidden%253Brotatable%253D0%253Bpoints%253D%255B%255B0%252C0.5%255D%252C%255B1%252C0.5%255D%255D%253BportConstraint%253Deastwest%253BwhiteSpace%253Dwrap%253Bhtml%253D1%253B%2522%2520vertex%253D%25221%2522%2520parent%253D%25221%2522%253E%253CmxGeometry%2520x%253D%252250%2522%2520y%253D%2522366%2522%2520width%253D%2522200%2522%2520height%253D%252226%2522%2520as%253D%2522geometry%2522%252F%253E%253C%252FmxCell%253E%253C%252Froot%253E%253C%252FmxGraphModel%253E%26lt%3B%2Fspan%26gt%3B%22%20style%3D%22text%3BstrokeColor%3Dnone%3BfillColor%3Dnone%3Balign%3Dleft%3BverticalAlign%3Dtop%3BspacingLeft%3D4%3BspacingRight%3D4%3Boverflow%3Dhidden%3Brotatable%3D0%3Bpoints%3D%5B%5B0%2C0.5%5D%2C%5B1%2C0.5%5D%5D%3BportConstraint%3Deastwest%3BwhiteSpace%3Dwrap%3Bhtml%3D1%3B%22%20vertex%3D%221%22%20parent%3D%221%22%3E%3CmxGeometry%20x%3D%22334%22%20y%3D%2286%22%20width%3D%22160%22%20height%3D%2222%22%20as%3D%22geometry%22%2F%3E%3C%2FmxCell%3E%3C%2Froot%3E%3C%2FmxGraphModel%3E%3CmxGraphModel%3E%3Croot%3E%3CmxCell%20id%3D%220%22%2F%3E%3CmxCell%20id%3D%221%22%20parent%3D%220%22%2F%3E%3CmxCell%20id%3D%222%22%20value%3D%22-%20cpf%3A%20int%22%20style%3D%22text%3BstrokeColor%3Dnone%3BfillColor%3Dnone%3Balign%3Dleft%3BverticalAlign%3Dtop%3BspacingLeft%3D4%3BspacingRight%3D4%3Boverflow%3Dhidden%3Brotatable%3D0%3Bpoints%3D%5B%5B0%2C0.5%5D%2C%5B1%2C0.5%5D%5D%3BportConstraint%3Deastwest%3BwhiteSpace%3Dwrap%3Bhtml%3D1%3B%22%20vertex%3D%221%22%20parent%3D%221%22%3E%3CmxGeometry%20x%3D%2250%22%20y%3D%22366%22%20width%3D%22200%22%20height%3D%2226%22%20as%3D%22geometry%22%2F%3E%3C%2FmxCell%3E%3C%2Froot%3E%3C%2FmxGraphModel%3E&lt;/span&gt;" style="text;strokeColor=none;fillColor=none;align=left;verticalAlign=top;spacingLeft=4;spacingRight=4;overflow=hidden;rotatable=0;points=[[0,0.5],[1,0.5]];portConstraint=eastwest;whiteSpace=wrap;html=1;" vertex="1" parent="8rAwrh_lsvGqk3LuG226-27">
          <mxGeometry y="48" width="230" height="22" as="geometry" />
        </mxCell>
        <mxCell id="8rAwrh_lsvGqk3LuG226-30" value="- genero: String&lt;span style=&quot;color: rgba(0, 0, 0, 0); font-family: monospace; font-size: 0px; text-wrap-mode: nowrap;&quot;&gt;%3CmxGraphModel%3E%3Croot%3E%3CmxCell%20id%3D%220%22%2F%3E%3CmxCell%20id%3D%221%22%20parent%3D%220%22%2F%3E%3CmxCell%20id%3D%222%22%20value%3D%22-%20cpf%3A%20int%26lt%3Bspan%20style%3D%26quot%3Bcolor%3A%20rgba(0%2C%200%2C%200%2C%200)%3B%20font-family%3A%20monospace%3B%20font-size%3A%200px%3B%20text-wrap-mode%3A%20nowrap%3B%26quot%3B%26gt%3B%253CmxGraphModel%253E%253Croot%253E%253CmxCell%2520id%253D%25220%2522%252F%253E%253CmxCell%2520id%253D%25221%2522%2520parent%253D%25220%2522%252F%253E%253CmxCell%2520id%253D%25222%2522%2520value%253D%2522%252B%2520carteiraDeTrabalho%253A%2520int%2526lt%253Bspan%2520style%253D%2526quot%253Bcolor%253A%2520rgba(0%252C%25200%252C%25200%252C%25200)%253B%2520font-family%253A%2520monospace%253B%2520font-size%253A%25200px%253B%2520text-wrap-mode%253A%2520nowrap%253B%2526quot%253B%2526gt%253B%25253CmxGraphModel%25253E%25253Croot%25253E%25253CmxCell%252520id%25253D%2525220%252522%25252F%25253E%25253CmxCell%252520id%25253D%2525221%252522%252520parent%25253D%2525220%252522%25252F%25253E%25253CmxCell%252520id%25253D%2525222%252522%252520value%25253D%252522-%252520cpf%25253A%252520int%252522%252520style%25253D%252522text%25253BstrokeColor%25253Dnone%25253BfillColor%25253Dnone%25253Balign%25253Dleft%25253BverticalAlign%25253Dtop%25253BspacingLeft%25253D4%25253BspacingRight%25253D4%25253Boverflow%25253Dhidden%25253Brotatable%25253D0%25253Bpoints%25253D%25255B%25255B0%25252C0.5%25255D%25252C%25255B1%25252C0.5%25255D%25255D%25253BportConstraint%25253Deastwest%25253BwhiteSpace%25253Dwrap%25253Bhtml%25253D1%25253B%252522%252520vertex%25253D%2525221%252522%252520parent%25253D%2525221%252522%25253E%25253CmxGeometry%252520x%25253D%25252250%252522%252520y%25253D%252522366%252522%252520width%25253D%252522200%252522%252520height%25253D%25252226%252522%252520as%25253D%252522geometry%252522%25252F%25253E%25253C%25252FmxCell%25253E%25253C%25252Froot%25253E%25253C%25252FmxGraphModel%25253E%2526lt%253B%252Fspan%2526gt%253B%2522%2520style%253D%2522text%253BstrokeColor%253Dnone%253BfillColor%253Dnone%253Balign%253Dleft%253BverticalAlign%253Dtop%253BspacingLeft%253D4%253BspacingRight%253D4%253Boverflow%253Dhidden%253Brotatable%253D0%253Bpoints%253D%255B%255B0%252C0.5%255D%252C%255B1%252C0.5%255D%255D%253BportConstraint%253Deastwest%253BwhiteSpace%253Dwrap%253Bhtml%253D1%253B%2522%2520vertex%253D%25221%2522%2520parent%253D%25221%2522%253E%253CmxGeometry%2520x%253D%2522334%2522%2520y%253D%252286%2522%2520width%253D%2522160%2522%2520height%253D%252222%2522%2520as%253D%2522geometry%2522%252F%253E%253C%252FmxCell%253E%253C%252Froot%253E%253C%252FmxGraphModel%253E%253CmxGraphModel%253E%253Croot%253E%253CmxCell%2520id%253D%25220%2522%252F%253E%253CmxCell%2520id%253D%25221%2522%2520parent%253D%25220%2522%252F%253E%253CmxCell%2520id%253D%25222%2522%2520value%253D%2522-%2520cpf%253A%2520int%2522%2520style%253D%2522text%253BstrokeColor%253Dnone%253BfillColor%253Dnone%253Balign%253Dleft%253BverticalAlign%253Dtop%253BspacingLeft%253D4%253BspacingRight%253D4%253Boverflow%253Dhidden%253Brotatable%253D0%253Bpoints%253D%255B%255B0%252C0.5%255D%252C%255B1%252C0.5%255D%255D%253BportConstraint%253Deastwest%253BwhiteSpace%253Dwrap%253Bhtml%253D1%253B%2522%2520vertex%253D%25221%2522%2520parent%253D%25221%2522%253E%253CmxGeometry%2520x%253D%252250%2522%2520y%253D%2522366%2522%2520width%253D%2522200%2522%2520height%253D%252226%2522%2520as%253D%2522geometry%2522%252F%253E%253C%252FmxCell%253E%253C%252Froot%253E%253C%252FmxGraphModel%253E%26lt%3B%2Fspan%26gt%3B%22%20style%3D%22text%3BstrokeColor%3Dnone%3BfillColor%3Dnone%3Balign%3Dleft%3BverticalAlign%3Dtop%3BspacingLeft%3D4%3BspacingRight%3D4%3Boverflow%3Dhidden%3Brotatable%3D0%3Bpoints%3D%5B%5B0%2C0.5%5D%2C%5B1%2C0.5%5D%5D%3BportConstraint%3Deastwest%3BwhiteSpace%3Dwrap%3Bhtml%3D1%3B%22%20vertex%3D%221%22%20parent%3D%221%22%3E%3CmxGeometry%20x%3D%22110%22%20y%3D%2270%22%20width%3D%22160%22%20height%3D%2222%22%20as%3D%22geometry%22%2F%3E%3C%2FmxCell%3E%3C%2Froot%3E%3C%2FmxGraphModel%3E%3CmxGraphModel%3E%3Croot%3E%3CmxCell%20id%3D%220%22%2F%3E%3CmxCell%20id%3D%221%22%20parent%3D%220%22%2F%3E%3CmxCell%20id%3D%222%22%20value%3D%22%2B%20carteiraDeTrabalho%3A%20int%26lt%3Bspan%20style%3D%26quot%3Bcolor%3A%20rgba(0%2C%200%2C%200%2C%200)%3B%20font-family%3A%20monospace%3B%20font-size%3A%200px%3B%20text-wrap-mode%3A%20nowrap%3B%26quot%3B%26gt%3B%253CmxGraphModel%253E%253Croot%253E%253CmxCell%2520id%253D%25220%2522%252F%253E%253CmxCell%2520id%253D%25221%2522%2520parent%253D%25220%2522%252F%253E%253CmxCell%2520id%253D%25222%2522%2520value%253D%2522-%2520cpf%253A%2520int%2522%2520style%253D%2522text%253BstrokeColor%253Dnone%253BfillColor%253Dnone%253Balign%253Dleft%253BverticalAlign%253Dtop%253BspacingLeft%253D4%253BspacingRight%253D4%253Boverflow%253Dhidden%253Brotatable%253D0%253Bpoints%253D%255B%255B0%252C0.5%255D%252C%255B1%252C0.5%255D%255D%253BportConstraint%253Deastwest%253BwhiteSpace%253Dwrap%253Bhtml%253D1%253B%2522%2520vertex%253D%25221%2522%2520parent%253D%25221%2522%253E%253CmxGeometry%2520x%253D%252250%2522%2520y%253D%2522366%2522%2520width%253D%2522200%2522%2520height%253D%252226%2522%2520as%253D%2522geometry%2522%252F%253E%253C%252FmxCell%253E%253C%252Froot%253E%253C%252FmxGraphModel%253E%26lt%3B%2Fspan%26gt%3B%22%20style%3D%22text%3BstrokeColor%3Dnone%3BfillColor%3Dnone%3Balign%3Dleft%3BverticalAlign%3Dtop%3BspacingLeft%3D4%3BspacingRight%3D4%3Boverflow%3Dhidden%3Brotatable%3D0%3Bpoints%3D%5B%5B0%2C0.5%5D%2C%5B1%2C0.5%5D%5D%3BportConstraint%3Deastwest%3BwhiteSpace%3Dwrap%3Bhtml%3D1%3B%22%20vertex%3D%221%22%20parent%3D%221%22%3E%3CmxGeometry%20x%3D%22334%22%20y%3D%2286%22%20width%3D%22160%22%20height%3D%2222%22%20as%3D%22geometry%22%2F%3E%3C%2FmxCell%3E%3C%2Froot%3E%3C%2FmxGraphModel%3E%3CmxGraphModel%3E%3Croot%3E%3CmxCell%20id%3D%220%22%2F%3E%3CmxCell%20id%3D%221%22%20parent%3D%220%22%2F%3E%3CmxCell%20id%3D%222%22%20value%3D%22-%20cpf%3A%20int%22%20style%3D%22text%3BstrokeColor%3Dnone%3BfillColor%3Dnone%3Balign%3Dleft%3BverticalAlign%3Dtop%3BspacingLeft%3D4%3BspacingRight%3D4%3Boverflow%3Dhidden%3Brotatable%3D0%3Bpoints%3D%5B%5B0%2C0.5%5D%2C%5B1%2C0.5%5D%5D%3BportConstraint%3Deastwest%3BwhiteSpace%3Dwrap%3Bhtml%3D1%3B%22%20vertex%3D%221%22%20parent%3D%221%22%3E%3CmxGeometry%20x%3D%2250%22%20y%3D%22366%22%20width%3D%22200%22%20height%3D%2226%22%20as%3D%22geometry%22%2F%3E%3C%2FmxCell%3E%3C%2Froot%3E%3C%2FmxGraphModel%3E&lt;/span&gt;" style="text;strokeColor=none;fillColor=none;align=left;verticalAlign=top;spacingLeft=4;spacingRight=4;overflow=hidden;rotatable=0;points=[[0,0.5],[1,0.5]];portConstraint=eastwest;whiteSpace=wrap;html=1;" vertex="1" parent="8rAwrh_lsvGqk3LuG226-27">
          <mxGeometry y="70" width="230" height="22" as="geometry" />
        </mxCell>
        <mxCell id="8rAwrh_lsvGqk3LuG226-31" value="- Id:Integer" style="text;strokeColor=none;fillColor=none;align=left;verticalAlign=top;spacingLeft=4;spacingRight=4;overflow=hidden;rotatable=0;points=[[0,0.5],[1,0.5]];portConstraint=eastwest;whiteSpace=wrap;html=1;" vertex="1" parent="8rAwrh_lsvGqk3LuG226-27">
          <mxGeometry y="92" width="230" height="20" as="geometry" />
        </mxCell>
        <mxCell id="8rAwrh_lsvGqk3LuG226-32" value="- cpf: String&lt;span style=&quot;color: rgba(0, 0, 0, 0); font-family: monospace; font-size: 0px; text-wrap-mode: nowrap;&quot;&gt;%3CmxGraphModel%3E%3Croot%3E%3CmxCell%20id%3D%220%22%2F%3E%3CmxCell%20id%3D%221%22%20parent%3D%220%22%2F%3E%3CmxCell%20id%3D%222%22%20value%3D%22%2B%20carteiraDeTrabalho%3A%20int%26lt%3Bspan%20style%3D%26quot%3Bcolor%3A%20rgba(0%2C%200%2C%200%2C%200)%3B%20font-family%3A%20monospace%3B%20font-size%3A%200px%3B%20text-wrap-mode%3A%20nowrap%3B%26quot%3B%26gt%3B%253CmxGraphModel%253E%253Croot%253E%253CmxCell%2520id%253D%25220%2522%252F%253E%253CmxCell%2520id%253D%25221%2522%2520parent%253D%25220%2522%252F%253E%253CmxCell%2520id%253D%25222%2522%2520value%253D%2522-%2520cpf%253A%2520int%2522%2520style%253D%2522text%253BstrokeColor%253Dnone%253BfillColor%253Dnone%253Balign%253Dleft%253BverticalAlign%253Dtop%253BspacingLeft%253D4%253BspacingRight%253D4%253Boverflow%253Dhidden%253Brotatable%253D0%253Bpoints%253D%255B%255B0%252C0.5%255D%252C%255B1%252C0.5%255D%255D%253BportConstraint%253Deastwest%253BwhiteSpace%253Dwrap%253Bhtml%253D1%253B%2522%2520vertex%253D%25221%2522%2520parent%253D%25221%2522%253E%253CmxGeometry%2520x%253D%252250%2522%2520y%253D%2522366%2522%2520width%253D%2522200%2522%2520height%253D%252226%2522%2520as%253D%2522geometry%2522%252F%253E%253C%252FmxCell%253E%253C%252Froot%253E%253C%252FmxGraphModel%253E%26lt%3B%2Fspan%26gt%3B%22%20style%3D%22text%3BstrokeColor%3Dnone%3BfillColor%3Dnone%3Balign%3Dleft%3BverticalAlign%3Dtop%3BspacingLeft%3D4%3BspacingRight%3D4%3Boverflow%3Dhidden%3Brotatable%3D0%3Bpoints%3D%5B%5B0%2C0.5%5D%2C%5B1%2C0.5%5D%5D%3BportConstraint%3Deastwest%3BwhiteSpace%3Dwrap%3Bhtml%3D1%3B%22%20vertex%3D%221%22%20parent%3D%221%22%3E%3CmxGeometry%20x%3D%22334%22%20y%3D%2286%22%20width%3D%22160%22%20height%3D%2222%22%20as%3D%22geometry%22%2F%3E%3C%2FmxCell%3E%3C%2Froot%3E%3C%2FmxGraphModel%3E%3CmxGraphModel%3E%3Croot%3E%3CmxCell%20id%3D%220%22%2F%3E%3CmxCell%20id%3D%221%22%20parent%3D%220%22%2F%3E%3CmxCell%20id%3D%222%22%20value%3D%22-%20cpf%3A%20int%22%20style%3D%22text%3BstrokeColor%3Dnone%3BfillColor%3Dnone%3Balign%3Dleft%3BverticalAlign%3Dtop%3BspacingLeft%3D4%3BspacingRight%3D4%3Boverflow%3Dhidden%3Brotatable%3D0%3Bpoints%3D%5B%5B0%2C0.5%5D%2C%5B1%2C0.5%5D%5D%3BportConstraint%3Deastwest%3BwhiteSpace%3Dwrap%3Bhtml%3D1%3B%22%20vertex%3D%221%22%20parent%3D%221%22%3E%3CmxGeometry%20x%3D%2250%22%20y%3D%22366%22%20width%3D%22200%22%20height%3D%2226%22%20as%3D%22geometry%22%2F%3E%3C%2FmxCell%3E%3C%2Froot%3E%3C%2FmxGraphModel%3E&lt;/span&gt;" style="text;strokeColor=none;fillColor=none;align=left;verticalAlign=top;spacingLeft=4;spacingRight=4;overflow=hidden;rotatable=0;points=[[0,0.5],[1,0.5]];portConstraint=eastwest;whiteSpace=wrap;html=1;" vertex="1" parent="8rAwrh_lsvGqk3LuG226-27">
          <mxGeometry y="112" width="230" height="22" as="geometry" />
        </mxCell>
        <mxCell id="8rAwrh_lsvGqk3LuG226-33" value="" style="line;strokeWidth=1;fillColor=none;align=left;verticalAlign=middle;spacingTop=-1;spacingLeft=3;spacingRight=3;rotatable=0;labelPosition=right;points=[];portConstraint=eastwest;strokeColor=inherit;" vertex="1" parent="8rAwrh_lsvGqk3LuG226-27">
          <mxGeometry y="134" width="230" height="8" as="geometry" />
        </mxCell>
        <mxCell id="8rAwrh_lsvGqk3LuG226-34" value="+ Logar(Login name, Senha senha):void" style="text;strokeColor=none;fillColor=none;align=left;verticalAlign=top;spacingLeft=4;spacingRight=4;overflow=hidden;rotatable=0;points=[[0,0.5],[1,0.5]];portConstraint=eastwest;whiteSpace=wrap;html=1;" vertex="1" parent="8rAwrh_lsvGqk3LuG226-27">
          <mxGeometry y="142" width="230" height="26" as="geometry" />
        </mxCell>
        <mxCell id="8rAwrh_lsvGqk3LuG226-35" value="+ atualizar(type):void" style="text;strokeColor=none;fillColor=none;align=left;verticalAlign=top;spacingLeft=4;spacingRight=4;overflow=hidden;rotatable=0;points=[[0,0.5],[1,0.5]];portConstraint=eastwest;whiteSpace=wrap;html=1;" vertex="1" parent="8rAwrh_lsvGqk3LuG226-27">
          <mxGeometry y="168" width="230" height="26" as="geometry" />
        </mxCell>
        <mxCell id="8rAwrh_lsvGqk3LuG226-36" value="- getbyId(type):void" style="text;strokeColor=none;fillColor=none;align=left;verticalAlign=top;spacingLeft=4;spacingRight=4;overflow=hidden;rotatable=0;points=[[0,0.5],[1,0.5]];portConstraint=eastwest;whiteSpace=wrap;html=1;" vertex="1" parent="8rAwrh_lsvGqk3LuG226-27">
          <mxGeometry y="194" width="230" height="26" as="geometry" />
        </mxCell>
        <mxCell id="8rAwrh_lsvGqk3LuG226-37" value="- deletar(type):void" style="text;strokeColor=none;fillColor=none;align=left;verticalAlign=top;spacingLeft=4;spacingRight=4;overflow=hidden;rotatable=0;points=[[0,0.5],[1,0.5]];portConstraint=eastwest;whiteSpace=wrap;html=1;" vertex="1" parent="8rAwrh_lsvGqk3LuG226-27">
          <mxGeometry y="220" width="230" height="26" as="geometry" />
        </mxCell>
        <mxCell id="8rAwrh_lsvGqk3LuG226-38" value="+criar(type):void" style="text;strokeColor=none;fillColor=none;align=left;verticalAlign=top;spacingLeft=4;spacingRight=4;overflow=hidden;rotatable=0;points=[[0,0.5],[1,0.5]];portConstraint=eastwest;whiteSpace=wrap;html=1;" vertex="1" parent="8rAwrh_lsvGqk3LuG226-27">
          <mxGeometry y="246" width="230" height="24" as="geometry" />
        </mxCell>
        <mxCell id="8rAwrh_lsvGqk3LuG226-39" value="1" style="edgeLabel;html=1;align=center;verticalAlign=middle;resizable=0;points=[];" connectable="0" vertex="1" parent="1">
          <mxGeometry x="-70" y="-330" as="geometry">
            <mxPoint x="-263" y="-39" as="offset" />
          </mxGeometry>
        </mxCell>
        <mxCell id="8rAwrh_lsvGqk3LuG226-41" value="Funcionario" style="swimlane;fontStyle=1;align=center;verticalAlign=top;childLayout=stackLayout;horizontal=1;startSize=26;horizontalStack=0;resizeParent=1;resizeParentMax=0;resizeLast=0;collapsible=1;marginBottom=0;whiteSpace=wrap;html=1;" vertex="1" parent="1">
          <mxGeometry x="230" y="-410" width="210" height="274" as="geometry" />
        </mxCell>
        <mxCell id="8rAwrh_lsvGqk3LuG226-42" value="- cnec: Integer&lt;span style=&quot;color: rgba(0, 0, 0, 0); font-family: monospace; font-size: 0px; text-wrap-mode: nowrap;&quot;&gt;%3CmxGraphModel%3E%3Croot%3E%3CmxCell%20id%3D%220%22%2F%3E%3CmxCell%20id%3D%221%22%20parent%3D%220%22%2F%3E%3CmxCell%20id%3D%222%22%20value%3D%22-%20cpf%3A%20int%22%20style%3D%22text%3BstrokeColor%3Dnone%3BfillColor%3Dnone%3Balign%3Dleft%3BverticalAlign%3Dtop%3BspacingLeft%3D4%3BspacingRight%3D4%3Boverflow%3Dhidden%3Brotatable%3D0%3Bpoints%3D%5B%5B0%2C0.5%5D%2C%5B1%2C0.5%5D%5D%3BportConstraint%3Deastwest%3BwhiteSpace%3Dwrap%3Bhtml%3D1%3B%22%20vertex%3D%221%22%20parent%3D%221%22%3E%3CmxGeometry%20x%3D%2250%22%20y%3D%22366%22%20width%3D%22200%22%20height%3D%2226%22%20as%3D%22geometry%22%2F%3E%3C%2FmxCell%3E%3C%2Froot%3E%3C%2FmxGraphModel%3E&lt;/span&gt;" style="text;strokeColor=none;fillColor=none;align=left;verticalAlign=top;spacingLeft=4;spacingRight=4;overflow=hidden;rotatable=0;points=[[0,0.5],[1,0.5]];portConstraint=eastwest;whiteSpace=wrap;html=1;" vertex="1" parent="8rAwrh_lsvGqk3LuG226-41">
          <mxGeometry y="26" width="210" height="22" as="geometry" />
        </mxCell>
        <mxCell id="8rAwrh_lsvGqk3LuG226-43" value="- rg: String&lt;span style=&quot;color: rgba(0, 0, 0, 0); font-family: monospace; font-size: 0px; text-wrap-mode: nowrap;&quot;&gt;%3CmxGraphModel%3E%3Croot%3E%3CmxCell%20id%3D%220%22%2F%3E%3CmxCell%20id%3D%221%22%20parent%3D%220%22%2F%3E%3CmxCell%20id%3D%222%22%20value%3D%22%2B%20carteiraDeTrabalho%3A%20int%26lt%3Bspan%20style%3D%26quot%3Bcolor%3A%20rgba(0%2C%200%2C%200%2C%200)%3B%20font-family%3A%20monospace%3B%20font-size%3A%200px%3B%20text-wrap-mode%3A%20nowrap%3B%26quot%3B%26gt%3B%253CmxGraphModel%253E%253Croot%253E%253CmxCell%2520id%253D%25220%2522%252F%253E%253CmxCell%2520id%253D%25221%2522%2520parent%253D%25220%2522%252F%253E%253CmxCell%2520id%253D%25222%2522%2520value%253D%2522-%2520cpf%253A%2520int%2522%2520style%253D%2522text%253BstrokeColor%253Dnone%253BfillColor%253Dnone%253Balign%253Dleft%253BverticalAlign%253Dtop%253BspacingLeft%253D4%253BspacingRight%253D4%253Boverflow%253Dhidden%253Brotatable%253D0%253Bpoints%253D%255B%255B0%252C0.5%255D%252C%255B1%252C0.5%255D%255D%253BportConstraint%253Deastwest%253BwhiteSpace%253Dwrap%253Bhtml%253D1%253B%2522%2520vertex%253D%25221%2522%2520parent%253D%25221%2522%253E%253CmxGeometry%2520x%253D%252250%2522%2520y%253D%2522366%2522%2520width%253D%2522200%2522%2520height%253D%252226%2522%2520as%253D%2522geometry%2522%252F%253E%253C%252FmxCell%253E%253C%252Froot%253E%253C%252FmxGraphModel%253E%26lt%3B%2Fspan%26gt%3B%22%20style%3D%22text%3BstrokeColor%3Dnone%3BfillColor%3Dnone%3Balign%3Dleft%3BverticalAlign%3Dtop%3BspacingLeft%3D4%3BspacingRight%3D4%3Boverflow%3Dhidden%3Brotatable%3D0%3Bpoints%3D%5B%5B0%2C0.5%5D%2C%5B1%2C0.5%5D%5D%3BportConstraint%3Deastwest%3BwhiteSpace%3Dwrap%3Bhtml%3D1%3B%22%20vertex%3D%221%22%20parent%3D%221%22%3E%3CmxGeometry%20x%3D%22334%22%20y%3D%2286%22%20width%3D%22160%22%20height%3D%2222%22%20as%3D%22geometry%22%2F%3E%3C%2FmxCell%3E%3C%2Froot%3E%3C%2FmxGraphModel%3E%3CmxGraphModel%3E%3Croot%3E%3CmxCell%20id%3D%220%22%2F%3E%3CmxCell%20id%3D%221%22%20parent%3D%220%22%2F%3E%3CmxCell%20id%3D%222%22%20value%3D%22-%20cpf%3A%20int%22%20style%3D%22text%3BstrokeColor%3Dnone%3BfillColor%3Dnone%3Balign%3Dleft%3BverticalAlign%3Dtop%3BspacingLeft%3D4%3BspacingRight%3D4%3Boverflow%3Dhidden%3Brotatable%3D0%3Bpoints%3D%5B%5B0%2C0.5%5D%2C%5B1%2C0.5%5D%5D%3BportConstraint%3Deastwest%3BwhiteSpace%3Dwrap%3Bhtml%3D1%3B%22%20vertex%3D%221%22%20parent%3D%221%22%3E%3CmxGeometry%20x%3D%2250%22%20y%3D%22366%22%20width%3D%22200%22%20height%3D%2226%22%20as%3D%22geometry%22%2F%3E%3C%2FmxCell%3E%3C%2Froot%3E%3C%2FmxGraphModel%3E&lt;/span&gt;" style="text;strokeColor=none;fillColor=none;align=left;verticalAlign=top;spacingLeft=4;spacingRight=4;overflow=hidden;rotatable=0;points=[[0,0.5],[1,0.5]];portConstraint=eastwest;whiteSpace=wrap;html=1;" vertex="1" parent="8rAwrh_lsvGqk3LuG226-41">
          <mxGeometry y="48" width="210" height="22" as="geometry" />
        </mxCell>
        <mxCell id="8rAwrh_lsvGqk3LuG226-44" value="- Id:String" style="text;strokeColor=none;fillColor=none;align=left;verticalAlign=top;spacingLeft=4;spacingRight=4;overflow=hidden;rotatable=0;points=[[0,0.5],[1,0.5]];portConstraint=eastwest;whiteSpace=wrap;html=1;" vertex="1" parent="8rAwrh_lsvGqk3LuG226-41">
          <mxGeometry y="70" width="210" height="20" as="geometry" />
        </mxCell>
        <mxCell id="8rAwrh_lsvGqk3LuG226-45" value="- cpf: String&lt;span style=&quot;color: rgba(0, 0, 0, 0); font-family: monospace; font-size: 0px; text-wrap-mode: nowrap;&quot;&gt;3CmxGraphModel%3E%3Croot%3E%3CmxCell%20id%3D%220%22%2F%3E%3CmxCell%20id%3D%221%22%20parent%3D%220%22%2F%3E%3CmxCell%20id%3D%222%22%20value%3D%22%2B%20carteiraDeTrabalho%3A%20int%26lt%3Bspan%20style%3D%26quot%3Bcolor%3A%20rgba(0%2C%200%2C%200%2C%200)%3B%20font-family%3A%20monospace%3B%20font-size%3A%200px%3B%20text-wrap-mode%3A%20nowrap%3B%26quot%3B%26gt%3B%253CmxGraphModel%253E%253Croot%253E%253CmxCell%2520id%253D%25220%2522%252F%253E%253CmxCell%2520id%253D%25221%2522%2520parent%253D%25220%2522%252F%253E%253CmxCell%2520id%253D%25222%2522%2520value%253D%2522-%2520cpf%253A%2520int%2522%2520style%253D%2522text%253BstrokeColor%253Dnone%253BfillColor%253Dnone%253Balign%253Dleft%253BverticalAlign%253Dtop%253BspacingLeft%253D4%253BspacingRight%253D4%253Boverflow%253Dhidden%253Brotatable%253D0%253Bpoints%253D%255B%255B0%252C0.5%255D%252C%255B1%252C0.5%255D%255D%253BportConstraint%253Deastwest%253BwhiteSpace%253Dwrap%253Bhtml%253D1%253B%2522%2520vertex%253D%25221%2522%2520parent%253D%25221%2522%253E%253CmxGeometry%2520x%253D%252250%2522%2520y%253D%2522366%2522%2520width%253D%2522200%2522%2520height%253D%252226%2522%2520as%253D%2522geometry%2522%252F%253E%253C%252FmxCell%253E%253C%252Froot%253E%253C%252FmxGraphModel%253E%26lt%3B%2Fspan%26gt%3B%22%20style%3D%22text%3BstrokeColor%3Dnone%3BfillColor%3Dnone%3Balign%3Dleft%3BverticalAlign%3Dtop%3BspacingLeft%3D4%3BspacingRight%3D4%3Boverflow%3Dhidden%3Brotatable%3D0%3Bpoints%3D%5B%5B0%2C0.5%5D%2C%5B1%2C0.5%5D%5D%3BportConstraint%3Deastwest%3BwhiteSpace%3Dwrap%3Bhtml%3D1%3B%22%20vertex%3D%221%22%20parent%3D%221%22%3E%3CmxGeometry%20x%3D%22334%22%20y%3D%2286%22%20width%3D%22160%22%20height%3D%2222%22%20as%3D%22geometry%22%2F%3E%3C%2FmxCell%3E%3C%2Froot%3E%3C%2FmxGraphModel%3E%3CmxGraphModel%3E%3Croot%3E%3CmxCell%20id%3D%220%22%2F%3E%3CmxCell%20id%3D%221%22%20parent%3D%220%22%2F%3E%3CmxCell%20id%3D%222%22%20value%3D%22-%20cpf%3A%20int%22%20style%3D%22text%3BstrokeColor%3Dnone%3BfillColor%3Dnone%3Balign%3Dleft%3BverticalAlign%3Dtop%3BspacingLeft%3D4%3BspacingRight%3D4%3Boverflow%3Dhidden%3Brotatable%3D0%3Bpoints%3D%5B%5B0%2C0.5%5D%2C%5B1%2C0.5%5D%5D%3BportConstraint%3Deastwest%3BwhiteSpace%3Dwrap%3Bhtml%3D1%3B%22%20vertex%3D%221%22%20parent%3D%221%22%3E%3CmxGeometry%20x%3D%2250%22%20y%3D%22366%22%20width%3D%22200%22%20height%3D%2226%22%20as%3D%22geometry%22%2F%3E%3C%2FmxCell%3E%3C%2Froot%3E%3C%2FmxGraphModel%3E&lt;/span&gt;" style="text;strokeColor=none;fillColor=none;align=left;verticalAlign=top;spacingLeft=4;spacingRight=4;overflow=hidden;rotatable=0;points=[[0,0.5],[1,0.5]];portConstraint=eastwest;whiteSpace=wrap;html=1;" vertex="1" parent="8rAwrh_lsvGqk3LuG226-41">
          <mxGeometry y="90" width="210" height="22" as="geometry" />
        </mxCell>
        <mxCell id="8rAwrh_lsvGqk3LuG226-46" value="- endereco: String&lt;span style=&quot;color: rgba(0, 0, 0, 0); font-family: monospace; font-size: 0px; text-wrap-mode: nowrap;&quot;&gt;%3CmxGraphModel%3E%3Croot%3E%3CmxCell%20id%3D%220%22%2F%3E%3CmxCell%20id%3D%221%22%20parent%3D%220%22%2F%3E%3CmxCell%20id%3D%222%22%20value%3D%22%2B%20carteiraDeTrabalho%3A%20int%26lt%3Bspan%20style%3D%26quot%3Bcolor%3A%20rgba(0%2C%200%2C%200%2C%200)%3B%20font-family%3A%20monospace%3B%20font-size%3A%200px%3B%20text-wrap-mode%3A%20nowrap%3B%26quot%3B%26gt%3B%253CmxGraphModel%253E%253Croot%253E%253CmxCell%2520id%253D%25220%2522%252F%253E%253CmxCell%2520id%253D%25221%2522%2520parent%253D%25220%2522%252F%253E%253CmxCell%2520id%253D%25222%2522%2520value%253D%2522-%2520cpf%253A%2520int%2522%2520style%253D%2522text%253BstrokeColor%253Dnone%253BfillColor%253Dnone%253Balign%253Dleft%253BverticalAlign%253Dtop%253BspacingLeft%253D4%253BspacingRight%253D4%253Boverflow%253Dhidden%253Brotatable%253D0%253Bpoints%253D%255B%255B0%252C0.5%255D%252C%255B1%252C0.5%255D%255D%253BportConstraint%253Deastwest%253BwhiteSpace%253Dwrap%253Bhtml%253D1%253B%2522%2520vertex%253D%25221%2522%2520parent%253D%25221%2522%253E%253CmxGeometry%2520x%253D%252250%2522%2520y%253D%2522366%2522%2520width%253D%2522200%2522%2520height%253D%252226%2522%2520as%253D%2522geometry%2522%252F%253E%253C%252FmxCell%253E%253C%252Froot%253E%253C%252FmxGraphModel%253E%26lt%3B%2Fspan%26gt%3B%22%20style%3D%22text%3BstrokeColor%3Dnone%3BfillColor%3Dnone%3Balign%3Dleft%3BverticalAlign%3Dtop%3BspacingLeft%3D4%3BspacingRight%3D4%3Boverflow%3Dhidden%3Brotatable%3D0%3Bpoints%3D%5B%5B0%2C0.5%5D%2C%5B1%2C0.5%5D%5D%3BportConstraint%3Deastwest%3BwhiteSpace%3Dwrap%3Bhtml%3D1%3B%22%20vertex%3D%221%22%20parent%3D%221%22%3E%3CmxGeometry%20x%3D%22334%22%20y%3D%2286%22%20width%3D%22160%22%20height%3D%2222%22%20as%3D%22geometry%22%2F%3E%3C%2FmxCell%3E%3C%2Froot%3E%3C%2FmxGraphModel%3E%3CmxGraphModel%3E%3Croot%3E%3CmxCell%20id%3D%220%22%2F%3E%3CmxCell%20id%3D%221%22%20parent%3D%220%22%2F%3E%3CmxCell%20id%3D%222%22%20value%3D%22-%20cpf%3A%20int%22%20style%3D%22text%3BstrokeColor%3Dnone%3BfillColor%3Dnone%3Balign%3Dleft%3BverticalAlign%3Dtop%3BspacingLeft%3D4%3BspacingRight%3D4%3Boverflow%3Dhidden%3Brotatable%3D0%3Bpoints%3D%5B%5B0%2C0.5%5D%2C%5B1%2C0.5%5D%5D%3BportConstraint%3Deastwest%3BwhiteSpace%3Dwrap%3Bhtml%3D1%3B%22%20vertex%3D%221%22%20parent%3D%221%22%3E%3CmxGeometry%20x%3D%2250%22%20y%3D%22366%22%20width%3D%22200%22%20height%3D%2226%22%20as%3D%22geometry%22%2F%3E%3C%2FmxCell%3E%3C%2Froot%3E%3C%2FmxGraphModel%3E&lt;/span&gt;" style="text;strokeColor=none;fillColor=none;align=left;verticalAlign=top;spacingLeft=4;spacingRight=4;overflow=hidden;rotatable=0;points=[[0,0.5],[1,0.5]];portConstraint=eastwest;whiteSpace=wrap;html=1;" vertex="1" parent="8rAwrh_lsvGqk3LuG226-41">
          <mxGeometry y="112" width="210" height="22" as="geometry" />
        </mxCell>
        <mxCell id="8rAwrh_lsvGqk3LuG226-47" value="" style="line;strokeWidth=1;fillColor=none;align=left;verticalAlign=middle;spacingTop=-1;spacingLeft=3;spacingRight=3;rotatable=0;labelPosition=right;points=[];portConstraint=eastwest;strokeColor=inherit;" vertex="1" parent="8rAwrh_lsvGqk3LuG226-41">
          <mxGeometry y="134" width="210" height="8" as="geometry" />
        </mxCell>
        <mxCell id="8rAwrh_lsvGqk3LuG226-48" value="- RegistrarFuncionario(type):void" style="text;strokeColor=none;fillColor=none;align=left;verticalAlign=top;spacingLeft=4;spacingRight=4;overflow=hidden;rotatable=0;points=[[0,0.5],[1,0.5]];portConstraint=eastwest;whiteSpace=wrap;html=1;" vertex="1" parent="8rAwrh_lsvGqk3LuG226-41">
          <mxGeometry y="142" width="210" height="28" as="geometry" />
        </mxCell>
        <mxCell id="8rAwrh_lsvGqk3LuG226-49" value="+ Atualizar(type):void" style="text;strokeColor=none;fillColor=none;align=left;verticalAlign=top;spacingLeft=4;spacingRight=4;overflow=hidden;rotatable=0;points=[[0,0.5],[1,0.5]];portConstraint=eastwest;whiteSpace=wrap;html=1;" vertex="1" parent="8rAwrh_lsvGqk3LuG226-41">
          <mxGeometry y="170" width="210" height="26" as="geometry" />
        </mxCell>
        <mxCell id="8rAwrh_lsvGqk3LuG226-50" value="- getbyId(type):void" style="text;strokeColor=none;fillColor=none;align=left;verticalAlign=top;spacingLeft=4;spacingRight=4;overflow=hidden;rotatable=0;points=[[0,0.5],[1,0.5]];portConstraint=eastwest;whiteSpace=wrap;html=1;" vertex="1" parent="8rAwrh_lsvGqk3LuG226-41">
          <mxGeometry y="196" width="210" height="26" as="geometry" />
        </mxCell>
        <mxCell id="8rAwrh_lsvGqk3LuG226-51" value="- Deletar(type):void" style="text;strokeColor=none;fillColor=none;align=left;verticalAlign=top;spacingLeft=4;spacingRight=4;overflow=hidden;rotatable=0;points=[[0,0.5],[1,0.5]];portConstraint=eastwest;whiteSpace=wrap;html=1;" vertex="1" parent="8rAwrh_lsvGqk3LuG226-41">
          <mxGeometry y="222" width="210" height="26" as="geometry" />
        </mxCell>
        <mxCell id="8rAwrh_lsvGqk3LuG226-52" value="+ Criar(type):void" style="text;strokeColor=none;fillColor=none;align=left;verticalAlign=top;spacingLeft=4;spacingRight=4;overflow=hidden;rotatable=0;points=[[0,0.5],[1,0.5]];portConstraint=eastwest;whiteSpace=wrap;html=1;" vertex="1" parent="8rAwrh_lsvGqk3LuG226-41">
          <mxGeometry y="248" width="210" height="26" as="geometry" />
        </mxCell>
        <mxCell id="8rAwrh_lsvGqk3LuG226-57" style="edgeStyle=orthogonalEdgeStyle;rounded=0;orthogonalLoop=1;jettySize=auto;html=1;exitX=0.5;exitY=0;exitDx=0;exitDy=0;endArrow=block;endFill=0;strokeWidth=1;entryX=1.005;entryY=-0.055;entryDx=0;entryDy=0;entryPerimeter=0;" edge="1" parent="1" source="8rAwrh_lsvGqk3LuG226-41" target="8rAwrh_lsvGqk3LuG226-34">
          <mxGeometry relative="1" as="geometry">
            <mxPoint x="120" y="-670" as="targetPoint" />
            <Array as="points">
              <mxPoint x="335" y="-669" />
            </Array>
          </mxGeometry>
        </mxCell>
        <mxCell id="8rAwrh_lsvGqk3LuG226-60" style="edgeStyle=orthogonalEdgeStyle;rounded=0;orthogonalLoop=1;jettySize=auto;html=1;exitX=0;exitY=0.5;exitDx=0;exitDy=0;entryX=0.983;entryY=0.885;entryDx=0;entryDy=0;entryPerimeter=0;" edge="1" parent="1" source="e14EU0JAHPm6NRN32HHI-26">
          <mxGeometry relative="1" as="geometry">
            <mxPoint x="76.93999999999983" y="187.01" as="targetPoint" />
            <Array as="points">
              <mxPoint x="160" y="233" />
              <mxPoint x="160" y="187" />
            </Array>
          </mxGeometry>
        </mxCell>
        <mxCell id="8rAwrh_lsvGqk3LuG226-62" value="+1..." style="edgeLabel;html=1;align=center;verticalAlign=middle;resizable=0;points=[];" connectable="0" vertex="1" parent="8rAwrh_lsvGqk3LuG226-60">
          <mxGeometry x="-0.1537" y="1" relative="1" as="geometry">
            <mxPoint x="61" y="11" as="offset" />
          </mxGeometry>
        </mxCell>
        <mxCell id="8rAwrh_lsvGqk3LuG226-68" value="+1..." style="edgeLabel;html=1;align=center;verticalAlign=middle;resizable=0;points=[];" connectable="0" vertex="1" parent="1">
          <mxGeometry x="-70" y="-120" as="geometry">
            <mxPoint x="42" y="161" as="offset" />
          </mxGeometry>
        </mxCell>
        <mxCell id="8rAwrh_lsvGqk3LuG226-71" value="1" style="edgeLabel;html=1;align=center;verticalAlign=middle;resizable=0;points=[];" connectable="0" vertex="1" parent="1">
          <mxGeometry x="-200" y="-330" as="geometry">
            <mxPoint x="511" y="207" as="offset" />
          </mxGeometry>
        </mxCell>
        <mxCell id="8rAwrh_lsvGqk3LuG226-72" value="+1..." style="edgeLabel;html=1;align=center;verticalAlign=middle;resizable=0;points=[];" connectable="0" vertex="1" parent="1">
          <mxGeometry x="-240" y="-320" as="geometry">
            <mxPoint x="550" y="366" as="offset" />
          </mxGeometry>
        </mxCell>
        <mxCell id="8rAwrh_lsvGqk3LuG226-73" value="+1..." style="edgeLabel;html=1;align=center;verticalAlign=middle;resizable=0;points=[];" connectable="0" vertex="1" parent="1">
          <mxGeometry x="270" y="70" as="geometry">
            <mxPoint x="-178" y="80" as="offset" />
          </mxGeometry>
        </mxCell>
        <mxCell id="8rAwrh_lsvGqk3LuG226-74" style="edgeStyle=orthogonalEdgeStyle;rounded=0;orthogonalLoop=1;jettySize=auto;html=1;exitX=0;exitY=0.5;exitDx=0;exitDy=0;entryX=1.013;entryY=0.917;entryDx=0;entryDy=0;entryPerimeter=0;" edge="1" parent="1" target="e14EU0JAHPm6NRN32HHI-133">
          <mxGeometry relative="1" as="geometry">
            <mxPoint x="-100" y="176.99999999999977" as="sourcePoint" />
          </mxGeometry>
        </mxCell>
        <mxCell id="8rAwrh_lsvGqk3LuG226-76" value="1" style="edgeLabel;html=1;align=center;verticalAlign=middle;resizable=0;points=[];" connectable="0" vertex="1" parent="8rAwrh_lsvGqk3LuG226-74">
          <mxGeometry x="0.6972" y="-1" relative="1" as="geometry">
            <mxPoint x="-24" y="-11" as="offset" />
          </mxGeometry>
        </mxCell>
        <mxCell id="8rAwrh_lsvGqk3LuG226-75" value="1" style="edgeLabel;html=1;align=center;verticalAlign=middle;resizable=0;points=[];" connectable="0" vertex="1" parent="1">
          <mxGeometry x="-160" y="-20" as="geometry">
            <mxPoint x="42" y="161" as="offset" />
          </mxGeometry>
        </mxCell>
        <mxCell id="uuNpxoRCURYeqyougo02-1" value="1" style="edgeLabel;html=1;align=center;verticalAlign=middle;resizable=0;points=[];" connectable="0" vertex="1" parent="1">
          <mxGeometry x="-270" y="-310" as="geometry">
            <mxPoint x="-160" y="355" as="offset" />
          </mxGeometry>
        </mxCell>
      </root>
    </mxGraphModel>
  </diagram>
  <diagram id="zAznMyeNsx1H3lvZ6unb" name="Página-3">
    <mxGraphModel grid="1" page="1" gridSize="10" guides="1" tooltips="1" connect="1" arrows="1" fold="1" pageScale="1" pageWidth="827" pageHeight="1169" math="0" shadow="0">
      <root>
        <mxCell id="0" />
        <mxCell id="1" parent="0" />
      </root>
    </mxGraphModel>
  </diagram>
</mxfile>
